<svg width="48" height="48" viewBox="0 0 48 48" fill="none" xmlns="http://www.w3.org/2000/svg">
<path d="M18.5 8C18.5 4.96244 20.9624 2.5 24 2.5H26C29.0376 2.5 31.5 4.96244 31.5 8V13.1067C31.5 15.0757 32.78 16.8161 34.6598 17.4025L36.2338 17.8936C39.3666 18.871 41.5 21.7716 41.5 25.0532C41.5 26.9862 39.933 28.5532 38 28.5532H12C10.067 28.5532 8.5 26.9862 8.5 25.0532C8.5 21.7716 10.6335 18.871 13.7662 17.8936L15.3403 17.4025C17.2199 16.8161 18.5 15.0757 18.5 13.1067V8Z" fill="#07A169"/>
<path opacity="0.4" d="M38 31.552H12C11.9829 31.552 11.9659 31.552 11.9489 31.5518C11.2288 31.5464 10.8687 31.5436 10.698 31.6904C10.5273 31.8372 10.4811 32.16 10.3886 32.8058C10.2659 33.6618 10.07 34.642 9.79067 35.6982C9.15311 38.1086 8.12701 40.737 6.73385 42.9302C6.45697 43.3662 6.42377 43.9138 6.64597 44.38C6.86819 44.8462 7.76077 45.1356 8.77109 45.3122C9.35939 45.359 10.1981 45.4136 11.2116 45.4462C13.233 45.5114 15.9762 45.49 18.8257 45.1356C21.6594 44.7832 24.693 44.0906 27.2392 42.7574C27.8388 42.4436 28.4166 42.091 28.961 41.6956C29.3364 41.423 29.895 41.6728 29.957 42.1326C30.0528 42.8434 30.2784 43.5944 30.8974 44.2118C31.5088 44.8214 32.4298 45.1026 33.143 45.2534C33.9394 45.4218 34.8498 45.4998 35.7334 45.4988C36.616 45.4976 37.5306 45.4176 38.3334 45.2402C39.0552 45.0808 39.9888 44.7814 40.6008 44.13C41.2082 43.4834 41.4156 42.728 41.4768 41.9932C41.5306 41.3468 41.4796 40.5684 41.4252 39.7412L41.419 39.647C41.2792 37.5138 40.9656 34.8608 40.2284 32.3636C40.0872 31.885 40.0166 31.6458 39.834 31.5252C39.6512 31.4044 39.3538 31.439 38.759 31.5082C38.51 31.5372 38.2568 31.552 38 31.552Z" fill="#FFB800"/>
</svg>
