<svg width="80" height="80" viewBox="0 0 80 80" fill="none" xmlns="http://www.w3.org/2000/svg">
<path d="M76.6621 65.9516C75.1715 65.7016 73.4808 65.4953 71.7028 65.3235V61.0295C71.6965 58.87 69.9903 57.098 67.8309 57.0105C58.403 56.6011 48.9782 57.8793 39.9998 60.7826C31.0215 57.873 21.5967 56.5979 12.1687 57.0105C10.0094 57.098 8.30314 58.87 8.30002 61.0295V65.3235C6.52187 65.4985 4.82819 65.7016 3.34068 65.9516C1.40316 66.2766 -0.00931373 67.9548 4.62447e-05 69.9174V72.7582C-0.00307871 73.9396 0.515669 75.0646 1.41564 75.8271C2.31876 76.5897 3.51252 76.9147 4.67811 76.7147C16.0877 74.8364 27.7908 75.8897 38.6812 79.7773C39.5343 80.0742 40.4625 80.0742 41.3125 79.7773C52.206 75.8896 63.906 74.8364 75.3188 76.7147C76.4844 76.9178 77.6812 76.5928 78.5843 75.8271C79.4875 75.0646 80.0062 73.9395 79.9999 72.7551V69.9174C80.0093 67.958 78.5965 66.2766 76.6621 65.9516ZM38.7494 77.1682C31.3088 74.6243 23.5023 73.318 15.6399 73.2993C11.8243 73.2962 8.0181 73.6149 4.25835 74.2493C3.82398 74.3275 3.37708 74.2056 3.03964 73.9181C2.69589 73.6306 2.49901 73.2055 2.50213 72.7555V69.9179C2.49588 69.1803 3.024 68.546 3.75213 68.4209C15.4649 66.549 27.4521 67.4521 38.752 71.0617L38.7494 77.1682ZM38.7494 68.4518C29.7055 65.6766 20.2399 64.5453 10.7991 65.1109V61.0294C10.8054 60.2075 11.4616 59.5387 12.2804 59.5106C21.2428 59.1262 30.1987 60.3169 38.7491 63.0233L38.7494 68.4518ZM41.2494 63.0233C49.7998 60.3169 58.7558 59.1293 67.7181 59.5106C68.54 59.5356 69.1932 60.2075 69.1994 61.0294V65.1109C59.7587 64.5453 50.2899 65.6766 41.2491 68.4549L41.2494 63.0233ZM77.4968 73.5516C77.4968 73.5516 75.7946 73.0458 74.2855 72.8572C62.8569 71.4286 52.3245 72.6183 41.2469 76.4342L41.2469 71.0581C52.5469 67.4517 64.534 66.5454 76.2468 68.4204C76.9749 68.5423 77.5061 69.1799 77.4968 69.9174L77.4968 73.5516ZM1.99996 21.105L3.62491 21.7644V51.6844C3.43741 51.772 3.26242 51.8845 3.10616 52.0188C2.13745 52.9971 2.13745 54.569 3.10616 55.544C3.57491 56.0159 4.21552 56.2753 4.8812 56.269C5.88744 56.2722 6.79991 55.669 7.18743 54.7377C7.57493 53.8063 7.36556 52.7344 6.65306 52.0188C6.49368 51.8844 6.31555 51.7719 6.12493 51.6875V22.7795L16.0625 26.8142V46.8625C16.0656 48.3157 17.2438 49.4908 18.6938 49.497H61.3096C62.7627 49.4908 63.9378 48.3157 63.9409 46.8625V26.8142L78.0033 21.1014V21.1045C79.2064 20.6107 79.9939 19.4419 79.9939 18.1419C79.9939 16.8418 79.2064 15.6699 78.0033 15.1792L41.2002 0.234385C40.4314 -0.0781283 39.5689 -0.0781283 38.8002 0.234385L2.0003 15.1792C0.797188 15.6699 0.00967021 16.8418 0.00967021 18.1419C0.00967021 19.4419 0.796828 20.6112 1.99996 21.105ZM61.3094 46.9968L18.5591 46.8624V27.8302L38.7998 36.049C39.5717 36.3678 40.4374 36.3678 41.2061 36.049L61.4308 27.8358L61.3094 46.9968ZM2.93756 17.4952L39.7374 2.54716C39.9031 2.47841 40.0937 2.47841 40.2593 2.54716L77.0592 17.4952C77.3248 17.6014 77.4967 17.8577 77.4967 18.1421C77.4967 18.4234 77.3248 18.6796 77.0592 18.7859L62.2096 24.8206H62.2034L40.2595 33.7371C40.0938 33.8059 39.9032 33.8059 39.7376 33.7371L17.7969 24.8238H17.7906L10.2344 21.7549L40.0967 19.3923H40.0998C40.7811 19.3298 41.2873 18.7298 41.2342 18.0454C41.1811 17.3641 40.5842 16.8515 39.8998 16.8984L5.06553 19.6517L2.93738 18.786C2.67176 18.6798 2.49988 18.4235 2.49988 18.1423C2.49988 17.8579 2.67193 17.6014 2.93756 17.4952Z" fill="#07A169"/>
</svg>
